<?xml version="1.0" encoding="UTF-8"?>
<svg id="Layer_1" data-name="Layer 1" xmlns="http://www.w3.org/2000/svg" viewBox="0 0 1614.94 1177.03">
  <defs>
    <style>
      .cls-1, .cls-2 {
        fill: #fff;
      }

      .cls-3 {
        letter-spacing: 0em;
      }

      .cls-4 {
        letter-spacing: -.02em;
      }

      .cls-5 {
        fill: none;
        stroke: #fff;
        stroke-linejoin: round;
        stroke-width: 16px;
      }

      .cls-2 {
        font-family: FelixTitlingMT, 'Felix Titling';
        font-size: 283.02px;
      }
    </style>
  </defs>
  <path class="cls-5" d="m804.1,152.9S713.53,8,478.06,8v579.62c236.6,16.98,326.04,163.02,326.04,163.02"/>
  <polyline class="cls-5" points="333.16 719.81 333.16 152.9 405.61 152.9"/>
  <polyline class="cls-5" points="1202.59 152.9 1275.04 152.9 1275.04 719.81"/>
  <path class="cls-5" d="m1275.04,714.41c-255.09,0-414.29,36.41-470.94,54.34-56.65-17.92-215.85-54.34-470.94-54.34"/>
  <path class="cls-5" d="m1130.13,80.45h72.45c0,.47,0,579.62,0,579.62-175.22,0-344.34,58.5-398.49,90.57-54.15-32.07-223.26-90.57-398.49-90.57,0,0,0-579.15,0-579.62h72.45"/>
  <path class="cls-5" d="m804.1,152.9S894.66,8,1130.13,8v579.62c-236.6,16.98-326.04,163.02-326.04,163.02"/>
  <line class="cls-5" x1="804.1" y1="750.64" x2="804.1" y2="483.8"/>
  <path class="cls-1" d="m1040.03,329.97c0-58.43-47.48-105.91-105.91-105.91-40.12,0-84.38,30.09-116.04,65.89,5.71,7.45,10.95,15,15.55,22.54,27.7-32.94,67.91-61.93,100.48-61.93,43.8,0,79.41,35.52,79.5,79.32v.92c-.09,43.71-35.7,79.32-79.5,79.32-40.49,0-92.94-45-118.34-86.59-29.35-48.31-88.71-99.47-140.97-99.47-58.43,0-105.91,47.48-105.91,105.91v.55c0,58.43,47.48,105.91,105.91,105.91,40.12,0,84.38-30.09,116.04-65.89-5.71-7.45-10.95-15-15.55-22.54-27.7,32.94-67.91,61.93-100.48,61.93-43.8,0-79.41-35.61-79.5-79.32v-.18h0v-.55c.09-43.8,35.7-79.32,79.5-79.32,40.49,0,92.94,45,118.34,86.59,29.35,48.13,88.71,99.29,140.97,99.29,58.43,0,105.91-47.48,105.91-105.91v-.55Z"/>
  <text class="cls-2" transform="translate(0 1108.76)"><tspan x="0" y="0">Book</tspan><tspan class="cls-4" x="858.19" y="0">L</tspan><tspan class="cls-3" x="1004.53" y="0">oop</tspan></text>
</svg>